<svg id="visual" viewBox="0 0 1366 768" width="1366" height="768" xmlns="http://www.w3.org/2000/svg" xmlns:xlink="http://www.w3.org/1999/xlink" version="1.1"><path d="M0 32L57 37C114 42 228 52 341.8 58.3C455.7 64.7 569.3 67.3 683.2 58.5C797 49.7 911 29.3 1024.8 21.7C1138.7 14 1252.3 19 1309.2 21.5L1366 24L1366 0L1309.2 0C1252.3 0 1138.7 0 1024.8 0C911 0 797 0 683.2 0C569.3 0 455.7 0 341.8 0C228 0 114 0 57 0L0 0Z" fill="#474747"></path><path d="M0 55L57 57.5C114 60 228 65 341.8 68.8C455.7 72.7 569.3 75.3 683.2 66.3C797 57.3 911 36.7 1024.8 36.7C1138.7 36.7 1252.3 57.3 1309.2 67.7L1366 78L1366 22L1309.2 19.5C1252.3 17 1138.7 12 1024.8 19.7C911 27.3 797 47.7 683.2 56.5C569.3 65.3 455.7 62.7 341.8 56.3C228 50 114 40 57 35L0 30Z" fill="#373737"></path><path d="M0 85L57 109.3C114 133.7 228 182.3 341.8 210.5C455.7 238.7 569.3 246.3 683.2 224.7C797 203 911 152 1024.8 129C1138.7 106 1252.3 111 1309.2 113.5L1366 116L1366 76L1309.2 65.7C1252.3 55.3 1138.7 34.7 1024.8 34.7C911 34.7 797 55.3 683.2 64.3C569.3 73.3 455.7 70.7 341.8 66.8C228 63 114 58 57 55.5L0 53Z" fill="#272727"></path><path d="M0 109L57 139.7C114 170.3 228 231.7 341.8 258.5C455.7 285.3 569.3 277.7 683.2 254.7C797 231.7 911 193.3 1024.8 170.3C1138.7 147.3 1252.3 139.7 1309.2 135.8L1366 132L1366 114L1309.2 111.5C1252.3 109 1138.7 104 1024.8 127C911 150 797 201 683.2 222.7C569.3 244.3 455.7 236.7 341.8 208.5C228 180.3 114 131.7 57 107.3L0 83Z" fill="#212121"></path><path d="M0 331L57 342.5C114 354 228 377 341.8 415.5C455.7 454 569.3 508 683.2 533.7C797 559.3 911 556.7 1024.8 520.8C1138.7 485 1252.3 416 1309.2 381.5L1366 347L1366 130L1309.2 133.8C1252.3 137.7 1138.7 145.3 1024.8 168.3C911 191.3 797 229.7 683.2 252.7C569.3 275.7 455.7 283.3 341.8 256.5C228 229.7 114 168.3 57 137.7L0 107Z" fill="#1d1d1d"></path><path d="M0 362L57 376C114 390 228 418 341.8 461.5C455.7 505 569.3 564 683.2 591C797 618 911 613 1024.8 568.2C1138.7 523.3 1252.3 438.7 1309.2 396.3L1366 354L1366 345L1309.2 379.5C1252.3 414 1138.7 483 1024.8 518.8C911 554.7 797 557.3 683.2 531.7C569.3 506 455.7 452 341.8 413.5C228 375 114 352 57 340.5L0 329Z" fill="#1c1c1c"></path><path d="M0 423L57 433.3C114 443.7 228 464.3 341.8 499C455.7 533.7 569.3 582.3 683.2 607.8C797 633.3 911 635.7 1024.8 590.8C1138.7 546 1252.3 454 1309.2 408L1366 362L1366 352L1309.2 394.3C1252.3 436.7 1138.7 521.3 1024.8 566.2C911 611 797 616 683.2 589C569.3 562 455.7 503 341.8 459.5C228 416 114 388 57 374L0 360Z" fill="#1c1c1c"></path><path d="M0 423L57 442.3C114 461.7 228 500.3 341.8 537.5C455.7 574.7 569.3 610.3 683.2 634.7C797 659 911 672 1024.8 628.5C1138.7 585 1252.3 485 1309.2 435L1366 385L1366 360L1309.2 406C1252.3 452 1138.7 544 1024.8 588.8C911 633.7 797 631.3 683.2 605.8C569.3 580.3 455.7 531.7 341.8 497C228 462.3 114 441.7 57 431.3L0 421Z" fill="#1d1d1d"></path><path d="M0 516L57 523.7C114 531.3 228 546.7 341.8 577.3C455.7 608 569.3 654 683.2 682.2C797 710.3 911 720.7 1024.8 682.2C1138.7 643.7 1252.3 556.3 1309.2 512.7L1366 469L1366 383L1309.2 433C1252.3 483 1138.7 583 1024.8 626.5C911 670 797 657 683.2 632.7C569.3 608.3 455.7 572.7 341.8 535.5C228 498.3 114 459.7 57 440.3L0 421Z" fill="#212121"></path><path d="M0 546L57 560.2C114 574.3 228 602.7 341.8 630.8C455.7 659 569.3 687 683.2 707.5C797 728 911 741 1024.8 720.5C1138.7 700 1252.3 646 1309.2 619L1366 592L1366 467L1309.2 510.7C1252.3 554.3 1138.7 641.7 1024.8 680.2C911 718.7 797 708.3 683.2 680.2C569.3 652 455.7 606 341.8 575.3C228 544.7 114 529.3 57 521.7L0 514Z" fill="#272727"></path><path d="M0 738L57 736.8C114 735.7 228 733.3 341.8 730.8C455.7 728.3 569.3 725.7 683.2 732C797 738.3 911 753.7 1024.8 751.2C1138.7 748.7 1252.3 728.3 1309.2 718.2L1366 708L1366 590L1309.2 617C1252.3 644 1138.7 698 1024.8 718.5C911 739 797 726 683.2 705.5C569.3 685 455.7 657 341.8 628.8C228 600.7 114 572.3 57 558.2L0 544Z" fill="#373737"></path><path d="M0 769L57 769C114 769 228 769 341.8 769C455.7 769 569.3 769 683.2 769C797 769 911 769 1024.8 769C1138.7 769 1252.3 769 1309.2 769L1366 769L1366 706L1309.2 716.2C1252.3 726.3 1138.7 746.7 1024.8 749.2C911 751.7 797 736.3 683.2 730C569.3 723.7 455.7 726.3 341.8 728.8C228 731.3 114 733.7 57 734.8L0 736Z" fill="#474747"></path></svg>