<svg id="visual" viewBox="0 0 1024 768" width="1024" height="768" xmlns="http://www.w3.org/2000/svg" xmlns:xlink="http://www.w3.org/1999/xlink" version="1.1"><path d="M0 32L42.7 37C85.3 42 170.7 52 256 58.3C341.3 64.7 426.7 67.3 512 58.5C597.3 49.7 682.7 29.3 768 21.7C853.3 14 938.7 19 981.3 21.5L1024 24L1024 0L981.3 0C938.7 0 853.3 0 768 0C682.7 0 597.3 0 512 0C426.7 0 341.3 0 256 0C170.7 0 85.3 0 42.7 0L0 0Z" fill="#474747"></path><path d="M0 55L42.7 57.5C85.3 60 170.7 65 256 68.8C341.3 72.7 426.7 75.3 512 66.3C597.3 57.3 682.7 36.7 768 36.7C853.3 36.7 938.7 57.3 981.3 67.7L1024 78L1024 22L981.3 19.5C938.7 17 853.3 12 768 19.7C682.7 27.3 597.3 47.7 512 56.5C426.7 65.3 341.3 62.7 256 56.3C170.7 50 85.3 40 42.7 35L0 30Z" fill="#373737"></path><path d="M0 85L42.7 109.3C85.3 133.7 170.7 182.3 256 210.5C341.3 238.7 426.7 246.3 512 224.7C597.3 203 682.7 152 768 129C853.3 106 938.7 111 981.3 113.5L1024 116L1024 76L981.3 65.7C938.7 55.3 853.3 34.7 768 34.7C682.7 34.7 597.3 55.3 512 64.3C426.7 73.3 341.3 70.7 256 66.8C170.7 63 85.3 58 42.7 55.5L0 53Z" fill="#272727"></path><path d="M0 109L42.7 139.7C85.3 170.3 170.7 231.7 256 258.5C341.3 285.3 426.7 277.7 512 254.7C597.3 231.7 682.7 193.3 768 170.3C853.3 147.3 938.7 139.7 981.3 135.8L1024 132L1024 114L981.3 111.5C938.7 109 853.3 104 768 127C682.7 150 597.3 201 512 222.7C426.7 244.3 341.3 236.7 256 208.5C170.7 180.3 85.3 131.7 42.7 107.3L0 83Z" fill="#212121"></path><path d="M0 331L42.7 342.5C85.3 354 170.7 377 256 415.5C341.3 454 426.7 508 512 533.7C597.3 559.3 682.7 556.7 768 520.8C853.3 485 938.7 416 981.3 381.5L1024 347L1024 130L981.3 133.8C938.7 137.7 853.3 145.3 768 168.3C682.7 191.3 597.3 229.7 512 252.7C426.7 275.7 341.3 283.3 256 256.5C170.7 229.7 85.3 168.3 42.7 137.7L0 107Z" fill="#1d1d1d"></path><path d="M0 362L42.7 376C85.3 390 170.7 418 256 461.5C341.3 505 426.7 564 512 591C597.3 618 682.7 613 768 568.2C853.3 523.3 938.7 438.7 981.3 396.3L1024 354L1024 345L981.3 379.5C938.7 414 853.3 483 768 518.8C682.7 554.7 597.3 557.3 512 531.7C426.7 506 341.3 452 256 413.5C170.7 375 85.3 352 42.7 340.5L0 329Z" fill="#1c1c1c"></path><path d="M0 423L42.7 433.3C85.3 443.7 170.7 464.3 256 499C341.3 533.7 426.7 582.3 512 607.8C597.3 633.3 682.7 635.7 768 590.8C853.3 546 938.7 454 981.3 408L1024 362L1024 352L981.3 394.3C938.7 436.7 853.3 521.3 768 566.2C682.7 611 597.3 616 512 589C426.7 562 341.3 503 256 459.5C170.7 416 85.3 388 42.7 374L0 360Z" fill="#1c1c1c"></path><path d="M0 423L42.7 442.3C85.3 461.7 170.7 500.3 256 537.5C341.3 574.7 426.7 610.3 512 634.7C597.3 659 682.7 672 768 628.5C853.3 585 938.7 485 981.3 435L1024 385L1024 360L981.3 406C938.7 452 853.3 544 768 588.8C682.7 633.7 597.3 631.3 512 605.8C426.7 580.3 341.3 531.7 256 497C170.7 462.3 85.3 441.7 42.7 431.3L0 421Z" fill="#1d1d1d"></path><path d="M0 516L42.7 523.7C85.3 531.3 170.7 546.7 256 577.3C341.3 608 426.7 654 512 682.2C597.3 710.3 682.7 720.7 768 682.2C853.3 643.7 938.7 556.3 981.3 512.7L1024 469L1024 383L981.3 433C938.7 483 853.3 583 768 626.5C682.7 670 597.3 657 512 632.7C426.7 608.3 341.3 572.7 256 535.5C170.7 498.3 85.3 459.7 42.7 440.3L0 421Z" fill="#212121"></path><path d="M0 546L42.7 560.2C85.3 574.3 170.7 602.7 256 630.8C341.3 659 426.7 687 512 707.5C597.3 728 682.7 741 768 720.5C853.3 700 938.7 646 981.3 619L1024 592L1024 467L981.3 510.7C938.7 554.3 853.3 641.7 768 680.2C682.7 718.7 597.3 708.3 512 680.2C426.7 652 341.3 606 256 575.3C170.7 544.7 85.3 529.3 42.7 521.7L0 514Z" fill="#272727"></path><path d="M0 738L42.7 736.8C85.3 735.7 170.7 733.3 256 730.8C341.3 728.3 426.7 725.7 512 732C597.3 738.3 682.7 753.7 768 751.2C853.3 748.7 938.7 728.3 981.3 718.2L1024 708L1024 590L981.3 617C938.7 644 853.3 698 768 718.5C682.7 739 597.3 726 512 705.5C426.7 685 341.3 657 256 628.8C170.7 600.7 85.3 572.3 42.7 558.2L0 544Z" fill="#373737"></path><path d="M0 769L42.7 769C85.3 769 170.7 769 256 769C341.3 769 426.7 769 512 769C597.3 769 682.7 769 768 769C853.3 769 938.7 769 981.3 769L1024 769L1024 706L981.3 716.2C938.7 726.3 853.3 746.7 768 749.2C682.7 751.7 597.3 736.3 512 730C426.7 723.7 341.3 726.3 256 728.8C170.7 731.3 85.3 733.7 42.7 734.8L0 736Z" fill="#474747"></path></svg>