<svg id="visual" viewBox="0 0 360 640" width="360" height="640" xmlns="http://www.w3.org/2000/svg" xmlns:xlink="http://www.w3.org/1999/xlink" version="1.1"><path d="M0 27L15 31.2C30 35.3 60 43.7 90 49C120 54.3 150 56.7 180 49.2C210 41.7 240 24.3 270 17.8C300 11.3 330 15.7 345 17.8L360 20L360 0L345 0C330 0 300 0 270 0C240 0 210 0 180 0C150 0 120 0 90 0C60 0 30 0 15 0L0 0Z" fill="#474747"></path><path d="M0 46L15 48.2C30 50.3 60 54.7 90 57.8C120 61 150 63 180 55.5C210 48 240 31 270 31C300 31 330 48 345 56.5L360 65L360 18L345 15.8C330 13.7 300 9.3 270 15.8C240 22.3 210 39.7 180 47.2C150 54.7 120 52.3 90 47C60 41.7 30 33.3 15 29.2L0 25Z" fill="#373737"></path><path d="M0 71L15 91.3C30 111.7 60 152.3 90 175.8C120 199.3 150 205.7 180 187.5C210 169.3 240 126.7 270 107.5C300 88.3 330 92.7 345 94.8L360 97L360 63L345 54.5C330 46 300 29 270 29C240 29 210 46 180 53.5C150 61 120 59 90 55.8C60 52.7 30 48.3 15 46.2L0 44Z" fill="#272727"></path><path d="M0 91L15 116.5C30 142 60 193 90 215.3C120 237.7 150 231.3 180 212.2C210 193 240 161 270 141.8C300 122.7 330 116.3 345 113.2L360 110L360 95L345 92.8C330 90.7 300 86.3 270 105.5C240 124.7 210 167.3 180 185.5C150 203.7 120 197.3 90 173.8C60 150.3 30 109.7 15 89.3L0 69Z" fill="#212121"></path><path d="M0 276L15 285.7C30 295.3 60 314.7 90 346.7C120 378.7 150 423.3 180 444.7C210 466 240 464 270 434.2C300 404.3 330 346.7 345 317.8L360 289L360 108L345 111.2C330 114.3 300 120.7 270 139.8C240 159 210 191 180 210.2C150 229.3 120 235.7 90 213.3C60 191 30 140 15 114.5L0 89Z" fill="#1d1d1d"></path><path d="M0 302L15 313.7C30 325.3 60 348.7 90 384.8C120 421 150 470 180 492.5C210 515 240 511 270 473.7C300 436.3 330 365.7 345 330.3L360 295L360 287L345 315.8C330 344.7 300 402.3 270 432.2C240 462 210 464 180 442.7C150 421.3 120 376.7 90 344.7C60 312.7 30 293.3 15 283.7L0 274Z" fill="#1c1c1c"></path><path d="M0 353L15 361.5C30 370 60 387 90 415.8C120 444.7 150 485.3 180 506.7C210 528 240 530 270 492.7C300 455.3 330 378.7 345 340.3L360 302L360 293L345 328.3C330 363.7 300 434.3 270 471.7C240 509 210 513 180 490.5C150 468 120 419 90 382.8C60 346.7 30 323.3 15 311.7L0 300Z" fill="#1c1c1c"></path><path d="M0 353L15 369C30 385 60 417 90 448C120 479 150 509 180 529.3C210 549.7 240 560.3 270 524C300 487.7 330 404.3 345 362.7L360 321L360 300L345 338.3C330 376.7 300 453.3 270 490.7C240 528 210 526 180 504.7C150 483.3 120 442.7 90 413.8C60 385 30 368 15 359.5L0 351Z" fill="#1d1d1d"></path><path d="M0 430L15 436.3C30 442.7 60 455.3 90 480.8C120 506.3 150 544.7 180 568.2C210 591.7 240 600.3 270 568.3C300 536.3 330 463.7 345 427.3L360 391L360 319L345 360.7C330 402.3 300 485.7 270 522C240 558.3 210 547.7 180 527.3C150 507 120 477 90 446C60 415 30 383 15 367L0 351Z" fill="#212121"></path><path d="M0 455L15 466.8C30 478.7 60 502.3 90 525.8C120 549.3 150 572.7 180 589.7C210 606.7 240 617.3 270 600.3C300 583.3 330 538.7 345 516.3L360 494L360 389L345 425.3C330 461.7 300 534.3 270 566.3C240 598.3 210 589.7 180 566.2C150 542.7 120 504.3 90 478.8C60 453.3 30 440.7 15 434.3L0 428Z" fill="#272727"></path><path d="M0 615L15 614C30 613 60 611 90 609C120 607 150 605 180 610.3C210 615.7 240 628.3 270 626.2C300 624 330 607 345 598.5L360 590L360 492L345 514.3C330 536.7 300 581.3 270 598.3C240 615.3 210 604.7 180 587.7C150 570.7 120 547.3 90 523.8C60 500.3 30 476.7 15 464.8L0 453Z" fill="#373737"></path><path d="M0 641L15 641C30 641 60 641 90 641C120 641 150 641 180 641C210 641 240 641 270 641C300 641 330 641 345 641L360 641L360 588L345 596.5C330 605 300 622 270 624.2C240 626.3 210 613.7 180 608.3C150 603 120 605 90 607C60 609 30 611 15 612L0 613Z" fill="#474747"></path></svg>