<svg id="visual" viewBox="0 0 1920 1080" width="1920" height="1080" xmlns="http://www.w3.org/2000/svg" xmlns:xlink="http://www.w3.org/1999/xlink" version="1.1"><path d="M0 44L80 51.2C160 58.3 320 72.7 480 81.7C640 90.7 800 94.3 960 81.8C1120 69.3 1280 40.7 1440 29.8C1600 19 1760 26 1840 29.5L1920 33L1920 0L1840 0C1760 0 1600 0 1440 0C1280 0 1120 0 960 0C800 0 640 0 480 0C320 0 160 0 80 0L0 0Z" fill="#474747"></path><path d="M0 77L80 80.5C160 84 320 91 480 96.3C640 101.7 800 105.3 960 92.8C1120 80.3 1280 51.7 1440 51.7C1600 51.7 1760 80.3 1840 94.7L1920 109L1920 31L1840 27.5C1760 24 1600 17 1440 27.8C1280 38.7 1120 67.3 960 79.8C800 92.3 640 88.7 480 79.7C320 70.7 160 56.3 80 49.2L0 42Z" fill="#373737"></path><path d="M0 120L80 154.2C160 188.3 320 256.7 480 296.2C640 335.7 800 346.3 960 315.7C1120 285 1280 213 1440 180.7C1600 148.3 1760 155.7 1840 159.3L1920 163L1920 107L1840 92.7C1760 78.3 1600 49.7 1440 49.7C1280 49.7 1120 78.3 960 90.8C800 103.3 640 99.7 480 94.3C320 89 160 82 80 78.5L0 75Z" fill="#272727"></path><path d="M0 152L80 195.2C160 238.3 320 324.7 480 362.5C640 400.3 800 389.7 960 357.3C1120 325 1280 271 1440 238.7C1600 206.3 1760 195.7 1840 190.3L1920 185L1920 161L1840 157.3C1760 153.7 1600 146.3 1440 178.7C1280 211 1120 283 960 313.7C800 344.3 640 333.7 480 294.2C320 254.7 160 186.3 80 152.2L0 118Z" fill="#212121"></path><path d="M0 465L80 481.3C160 497.7 320 530.3 480 584.3C640 638.3 800 713.7 960 749.7C1120 785.7 1280 782.3 1440 732C1600 681.7 1760 584.3 1840 535.7L1920 487L1920 183L1840 188.3C1760 193.7 1600 204.3 1440 236.7C1280 269 1120 323 960 355.3C800 387.7 640 398.3 480 360.5C320 322.7 160 236.3 80 193.2L0 150Z" fill="#1d1d1d"></path><path d="M0 509L80 528.7C160 548.3 320 587.7 480 648.8C640 710 800 793 960 830.8C1120 868.7 1280 861.3 1440 798.3C1600 735.3 1760 616.7 1840 557.3L1920 498L1920 485L1840 533.7C1760 582.3 1600 679.7 1440 730C1280 780.3 1120 783.7 960 747.7C800 711.7 640 636.3 480 582.3C320 528.3 160 495.7 80 479.3L0 463Z" fill="#1c1c1c"></path><path d="M0 595L80 609.3C160 623.7 320 652.3 480 701C640 749.7 800 818.3 960 854.3C1120 890.3 1280 893.7 1440 830.7C1600 767.7 1760 638.3 1840 573.7L1920 509L1920 496L1840 555.3C1760 614.7 1600 733.3 1440 796.3C1280 859.3 1120 866.7 960 828.8C800 791 640 708 480 646.8C320 585.7 160 546.3 80 526.7L0 507Z" fill="#1c1c1c"></path><path d="M0 595L80 622C160 649 320 703 480 755.2C640 807.3 800 857.7 960 891.8C1120 926 1280 944 1440 882.8C1600 821.7 1760 681.3 1840 611.2L1920 541L1920 507L1840 571.7C1760 636.3 1600 765.7 1440 828.7C1280 891.7 1120 888.3 960 852.3C800 816.3 640 747.7 480 699C320 650.3 160 621.7 80 607.3L0 593Z" fill="#1d1d1d"></path><path d="M0 725L80 735.7C160 746.3 320 767.7 480 810.8C640 854 800 919 960 958.7C1120 998.3 1280 1012.7 1440 958.7C1600 904.7 1760 782.3 1840 721.2L1920 660L1920 539L1840 609.2C1760 679.3 1600 819.7 1440 880.8C1280 942 1120 924 960 889.8C800 855.7 640 805.3 480 753.2C320 701 160 647 80 620L0 593Z" fill="#212121"></path><path d="M0 768L80 787.8C160 807.7 320 847.3 480 886.8C640 926.3 800 965.7 960 994.3C1120 1023 1280 1041 1440 1012.3C1600 983.7 1760 908.3 1840 870.7L1920 833L1920 658L1840 719.2C1760 780.3 1600 902.7 1440 956.7C1280 1010.7 1120 996.3 960 956.7C800 917 640 852 480 808.8C320 765.7 160 744.3 80 733.7L0 723Z" fill="#272727"></path><path d="M0 1038L80 1036.2C160 1034.3 320 1030.7 480 1027C640 1023.3 800 1019.7 960 1028.7C1120 1037.7 1280 1059.3 1440 1055.8C1600 1052.3 1760 1023.7 1840 1009.3L1920 995L1920 831L1840 868.7C1760 906.3 1600 981.7 1440 1010.3C1280 1039 1120 1021 960 992.3C800 963.7 640 924.3 480 884.8C320 845.3 160 805.7 80 785.8L0 766Z" fill="#373737"></path><path d="M0 1081L80 1081C160 1081 320 1081 480 1081C640 1081 800 1081 960 1081C1120 1081 1280 1081 1440 1081C1600 1081 1760 1081 1840 1081L1920 1081L1920 993L1840 1007.3C1760 1021.7 1600 1050.3 1440 1053.8C1280 1057.3 1120 1035.7 960 1026.7C800 1017.7 640 1021.3 480 1025C320 1028.7 160 1032.3 80 1034.2L0 1036Z" fill="#474747"></path></svg>