<!-- inicio -->
<svg xmlns="http://www.w3.org/2000/svg" version="1.1" xmlns:xlink="http://www.w3.org/1999/xlink" xmlns:svgjs="http://svgjs.dev/svgjs" width="1920" height="1080" preserveAspectRatio="none" viewBox="0 0 1920 1080">
  <style>
  </style>
  <g mask="url(#SvgjsMask1093)" fill="none">
    <rect width="1920" height="1080" x="0" y="0" fill="rgba(39, 39, 39, 1)"></rect>
    <path d="M0,488.897C100.738,515.073,218.775,532.925,305.634,475.576C392.425,418.272,394.502,294.497,437.712,199.896C480.925,105.288,567.936,23.216,559.609,-80.46C551.19,-185.286,474.005,-273.081,394.221,-341.594C321.068,-404.413,221.81,-414.101,131.558,-448.044C32.621,-485.253,-62.707,-587.753,-161.69,-550.667C-262.24,-512.994,-270.883,-373.202,-321.27,-278.382C-359.571,-206.306,-411.297,-141.591,-422.066,-60.684C-432.767,19.713,-418.336,101.966,-381.512,174.231C-345.621,244.665,-279.147,289.169,-218.163,339.468C-148.758,396.712,-87.074,466.271,0,488.897" fill="#1f1f1f"></path>
    <path d="M1920 1867.682C2086.038 1863.368 2264.087 1922.379 2407.303 1838.258 2551.775 1753.4 2602.5209999999997 1575.87 2674.447 1424.5439999999999 2747.492 1270.863 2839.749 1119.049 2829.884 949.178 2819.633 772.6669999999999 2746.974 596.356 2619.25 474.096 2495.9790000000003 356.09799999999996 2313.463 345.683 2149.614 298.00800000000004 1986.216 250.46400000000006 1815.942 126.55899999999997 1660.1480000000001 195.02499999999998 1502.545 264.28599999999994 1508.577 495.759 1398.483 628.1030000000001 1291.783 756.366 1086.662 795.033 1030.3609999999999 952.0889999999999 972.227 1114.259 1035.562 1294.595 1102.684 1453.2559999999999 1171.176 1615.1570000000002 1259.359 1784.508 1416.1480000000001 1864.009 1569.0430000000001 1941.5349999999999 1748.631 1872.134 1920 1867.682" fill="#2f2f2f"></path>
  </g>
  <defs>
    <mask id="SvgjsMask1093">
      <rect width="1920" height="1080" fill="#ffffff"></rect>
    </mask>
  </defs>
</svg>
